# xmcd CD database file
#
# Track frame offsets:
#	150
#	15885
#	25640
#	35827
#	48210
#	61705
#	74160
#	88282
#	101842
#	114412
#	123270
#	137167
#	149777
#	161180
#	174270
#	184872
#	198570
#	210762
#	222632
#	234077
#
# Disc length: 3284 seconds
#
# Revision: 0
# Processed by: cddbd v1.4PL0 Copyright (c) Steve Scherf et al.
# Submitted via: CDex 1.50Beta6
#
DISCID=220cd214
DTITLE=Narvel Felts - The Very Best of Narvel Felts
DYEAR=1994
DGENRE=Country
TTITLE0=Reconsider Me
TTITLE1=Everlasting Love
TTITLE2=Mountain of Love
TTITLE3=My Prayer
TTITLE4=When Your Good Love Was Mine
TTITLE5=Raindrops
TTITLE6=Funny How Time Slips Away
TTITLE7=To Love Somebody
TTITLE8=Fraulein
TTITLE9=Just Keep It Up
TTITLE10=Drift Away
TTITLE11=Lonely Teardrops
TTITLE12=All in the Name of Love
TTITLE13=Somebody Hold Me (Until She Passes By)
TTITLE14=I'd Trade All My Tomorrows (For Just One...
TTITLE15=One Run for the Roses
TTITLE16=The End of My World Is Near
TTITLE17=Runaway 
TTITLE18=Three Thousand Miles
TTITLE19=Crying
EXTD=YEAR: 1994
EXTT0=
EXTT1=
EXTT2=
EXTT3=
EXTT4=
EXTT5=
EXTT6=
EXTT7=
EXTT8=
EXTT9=
EXTT10=
EXTT11=
EXTT12=
EXTT13=
EXTT14=
EXTT15=
EXTT16=
EXTT17=
EXTT18=
EXTT19=
PLAYORDER=
